<?xml version="1.0" standalone="no"?>
<!DOCTYPE svg PUBLIC "-//W3C//DTD SVG 20010904//EN"
 "http://www.w3.org/TR/2001/REC-SVG-20010904/DTD/svg10.dtd">
<svg version="1.0" xmlns="http://www.w3.org/2000/svg"
 width="256.000000pt" height="256.000000pt" viewBox="0 0 256.000000 256.000000"
 preserveAspectRatio="xMidYMid meet">

<rect height="256" fill="antiquewhite" rx="48" ry="48" width="256"></rect>
<g transform="translate(0.000000,256.000000) scale(0.100000,-0.100000)"
fill="darkslategray" stroke="none">
fill="#000000" stroke="none">
<path d="M374 2545 c-175 -38 -317 -179 -359 -356 -12 -54 -15 -190 -15 -909
0 -918 0 -911 56 -1022 61 -120 207 -226 340 -248 78 -13 1690 -13 1768 0 191
31 355 196 385 390 7 41 11 369 11 890 0 908 0 906 -61 1021 -38 70 -128 158
-201 195 -105 53 -115 54 -1023 53 -659 0 -853 -3 -901 -14z m1821 -166 c68
-25 147 -99 178 -166 l22 -48 0 -885 0 -885 -22 -47 c-26 -57 -95 -128 -155
-160 l-43 -23 -895 0 -895 0 -43 23 c-60 32 -129 103 -155 160 l-22 47 0 885
0 885 22 48 c30 65 110 141 175 166 52 19 75 20 915 20 849 1 863 1 918 -20z"/>
<path d="M990 1815 l0 -375 -95 0 -95 0 0 140 0 140 -95 0 -95 0 0 -116 0
-116 67 -69 66 -69 146 0 147 0 67 68 67 68 0 352 0 352 -90 0 -90 0 0 -375z"/>
<path d="M1427 2122 l-67 -68 0 -94 0 -95 140 -140 140 -140 0 -72 0 -73 -45
0 c-34 0 -68 12 -135 45 -49 25 -92 45 -95 45 -3 0 -5 -10 -5 -23 0 -15 24
-46 68 -90 l68 -67 100 0 100 0 67 68 67 68 0 94 0 95 -140 140 -140 140 0 72
0 73 45 0 c34 0 68 -12 135 -45 49 -25 92 -45 95 -45 3 0 5 10 5 23 0 15 -24
46 -68 90 l-68 67 -100 0 -100 0 -67 -68z"/>
<path d="M420 760 l0 -360 200 0 200 0 0 40 0 40 -120 0 -120 0 0 320 0 320
-80 0 -80 0 0 -360z"/>
<path d="M980 1080 l0 -40 80 0 80 0 0 40 0 40 -80 0 -80 0 0 -40z"/>
<path d="M1940 1040 l0 -80 -40 0 -40 0 0 -40 0 -40 40 0 40 0 0 -182 0 -182
57 -58 57 -58 63 0 63 0 0 40 0 40 -40 0 -40 0 0 200 0 200 40 0 40 0 0 40 0
40 -40 0 -40 0 0 80 0 80 -80 0 -80 0 0 -80z"/>
<path d="M980 680 l0 -280 80 0 80 0 0 280 0 280 -80 0 -80 0 0 -280z"/>
<path d="M1300 680 l0 -280 80 0 80 0 0 240 0 240 80 0 80 0 0 -240 0 -240 80
0 80 0 0 223 0 223 -58 57 -58 57 -182 0 -182 0 0 -280z"/>
</g>
</svg>
