<?xml version="1.0" standalone="no"?>
<!DOCTYPE svg PUBLIC "-//W3C//DTD SVG 20010904//EN"
 "http://www.w3.org/TR/2001/REC-SVG-20010904/DTD/svg10.dtd">
<svg version="1.0" xmlns="http://www.w3.org/2000/svg"
 width="512.000000pt" height="512.000000pt" viewBox="0 0 512.000000 512.000000"
 preserveAspectRatio="xMidYMid meet">

<rect height="512" fill="antiquewhite" rx="96" ry="96" width="512"></rect>
<g transform="translate(0.000000,512.000000) scale(0.100000,-0.100000)"
fill="darkslategray" stroke="none">
<path d="M870 5113 c-76 -8 -192 -35 -251 -58 -308 -121 -511 -357 -596 -695
-15 -59 -17 -225 -21 -1740 -2 -1222 0 -1701 8 -1770 38 -309 218 -578 488
-728 93 -51 229 -96 335 -111 110 -15 3344 -15 3454 0 229 32 448 150 595 322
118 139 204 328 227 500 15 110 15 3346 0 3453 -56 402 -340 711 -744 811 -65
16 -197 17 -1765 18 -932 1 -1711 0 -1730 -2z m3510 -181 c268 -83 476 -293
552 -557 l23 -80 0 -1735 0 -1735 -23 -80 c-74 -258 -273 -462 -537 -553 l-80
-27 -1750 0 -1750 0 -75 23 c-267 83 -476 294 -552 557 l-23 80 0 1735 0 1735
23 80 c44 151 147 309 267 406 102 83 249 149 385 172 14 3 799 4 1745 3
l1720 -1 75 -23z"/>
<path d="M1630 3655 l0 -855 -215 0 -215 0 0 320 0 320 -215 0 -215 0 0 -272
0 -272 152 -153 152 -153 336 0 335 0 153 153 152 152 0 808 0 807 -210 0
-210 0 0 -855z"/>
<path d="M2632 4357 l-152 -153 0 -219 0 -219 320 -321 320 -320 0 -163 0
-162 -105 0 -105 0 -210 105 c-115 58 -212 105 -215 105 -3 0 -5 -26 -5 -57
l0 -57 152 -153 152 -153 231 0 230 0 153 153 152 152 0 220 0 220 -320 320
-320 320 0 162 0 163 105 0 105 0 210 -105 c115 -58 212 -105 215 -105 3 0 5
26 5 58 l0 57 -153 153 -152 152 -231 0 -230 0 -152 -153z"/>
<path d="M880 1280 l0 -720 400 0 400 0 0 80 0 80 -240 0 -240 0 0 640 0 640
-160 0 -160 0 0 -720z"/>
<path d="M2000 1920 l0 -80 160 0 160 0 0 80 0 80 -160 0 -160 0 0 -80z"/>
<path d="M3920 1840 l0 -160 -80 0 -80 0 0 -80 0 -80 80 0 80 0 0 -368 0 -367
113 -113 112 -112 128 0 127 0 0 80 0 80 -80 0 -80 0 0 400 0 400 80 0 80 0 0
80 0 80 -80 0 -80 0 0 160 0 160 -160 0 -160 0 0 -160z"/>
<path d="M2000 1120 l0 -560 160 0 160 0 0 560 0 560 -160 0 -160 0 0 -560z"/>
<path d="M2640 1120 l0 -560 160 0 160 0 0 480 0 480 160 0 160 0 0 -480 0
-480 160 0 160 0 0 448 0 447 -113 113 -112 112 -368 0 -367 0 0 -560z"/>
</g>
</svg>
