<?xml version="1.0" standalone="no"?>
<!DOCTYPE svg PUBLIC "-//W3C//DTD SVG 20010904//EN"
 "http://www.w3.org/TR/2001/REC-SVG-20010904/DTD/svg10.dtd">
<svg version="1.0" xmlns="http://www.w3.org/2000/svg"
 width="512.000000pt" height="512.000000pt" viewBox="0 0 512.000000 512.000000"
 preserveAspectRatio="xMidYMid meet">

<rect height="512" fill="antiquewhite" rx="96" ry="96" width="512"></rect>
<g transform="translate(0.000000,512.000000) scale(0.100000,-0.100000)"
fill="darkslategray" stroke="none">
<path d="M795 5104 c-196 -35 -360 -119 -503 -258 -127 -123 -213 -271 -264
-456 l-23 -85 0 -1745 0 -1745 22 -84 c95 -353 348 -606 703 -703 l85 -23
1745 0 1745 0 85 23 c352 96 608 352 702 702 l23 85 0 1745 c0 1938 5 1781
-66 1959 -103 259 -338 475 -609 560 -133 41 -133 41 -1889 40 -1406 -1 -1689
-3 -1756 -15z m3513 -240 c44 -9 117 -35 172 -61 80 -39 108 -59 186 -137 78
-78 98 -106 137 -186 83 -172 78 -37 75 -1955 -4 -1903 3 -1728 -78 -1891 -68
-140 -220 -281 -365 -341 -131 -55 -66 -53 -1875 -53 -1809 0 -1744 -2 -1875
53 -145 60 -297 201 -365 341 -81 163 -74 -12 -78 1891 -3 1919 -8 1785 75
1955 39 80 60 109 137 186 78 78 106 98 186 137 167 81 33 75 1913 76 1483 1
1687 -1 1755 -15z"/>
<path d="M1748 3498 l-3 -853 -212 -3 -213 -2 0 320 0 320 -215 0 -215 0 0
-273 0 -272 153 -153 152 -152 340 0 340 0 148 148 147 147 0 813 0 812 -210
0 -210 0 -2 -852z"/>
<path d="M2752 4197 l-152 -152 0 -220 0 -220 320 -320 320 -320 0 -162 0
-163 -100 0 -100 0 -210 105 c-115 58 -214 105 -220 105 -6 0 -10 -26 -10 -58
l0 -57 153 -153 152 -152 230 0 230 0 153 153 152 152 0 220 0 220 -320 320
-320 320 0 162 0 163 105 0 105 0 210 -105 c115 -58 212 -105 215 -105 3 0 5
26 5 58 l0 57 -153 153 -152 152 -230 0 -230 0 -153 -153z"/>
<path d="M840 1360 l0 -720 400 0 400 0 0 80 0 80 -240 0 -240 0 0 640 0 640
-160 0 -160 0 0 -720z"/>
<path d="M1960 2000 l0 -80 160 0 160 0 0 80 0 80 -160 0 -160 0 0 -80z"/>
<path d="M3880 1920 l0 -160 -80 0 -80 0 0 -80 0 -80 80 0 80 0 0 -368 0 -367
113 -113 112 -112 128 0 127 0 0 80 0 80 -80 0 -80 0 0 400 0 400 80 0 80 0 0
80 0 80 -80 0 -80 0 0 160 0 160 -160 0 -160 0 0 -160z"/>
<path d="M1960 1200 l0 -560 160 0 160 0 0 560 0 560 -160 0 -160 0 0 -560z"/>
<path d="M2600 1200 l0 -560 160 0 160 0 0 480 0 480 160 0 160 0 0 -480 0
-480 160 0 160 0 0 448 0 447 -113 113 -112 112 -368 0 -367 0 0 -560z"/>
</g>
</svg>
